<svg width="24" height="24" viewBox="0 0 24 24" fill="none" xmlns="http://www.w3.org/2000/svg">
<path d="M3.25181 12.3152C3.25181 12.3152 0.491917 7.53651 3.16808 5.14692C5.84424 2.75734 18.979 4.15468 19.384 4.16883C19.7891 4.18298 23.3477 4.11177 21.443 5.86611C21.443 5.86611 21.3645 6.06182 20.3362 6.04485C19.3078 6.02787 10.4853 6.19529 8.68739 6.30045C6.88949 6.40562 3.61685 6.14435 4.98151 8.1194C6.34617 10.0945 7.94415 11.6116 8.03352 11.7752C8.1229 11.9389 8.97999 12.1483 12.6388 12.2322C16.2977 12.3162 18.3783 12.0139 18.6761 12.542C18.9738 13.0702 18.4094 13.7201 16.0888 14.6425C13.7683 15.565 9.28058 16.7308 8.60413 17.1995L7.92768 17.6683C7.92768 17.6683 8.51146 18.2389 7.93051 19.6476C7.34955 21.0563 4.65269 19.7146 5.15415 18.478C5.15415 18.478 5.21389 17.5377 5.66501 17.3372C6.11614 17.1368 6.04934 17.2005 6.04934 17.2005C6.04934 17.2005 3.90004 13.6786 3.25181 12.3162V12.3152Z" stroke="#A50D12" strokeWidth="1.5" strokeLinecap="round" strokeLinejoin="round"/>
</svg>
