<svg width="181" height="29" viewBox="0 0 181 29" fill="none" xmlns="http://www.w3.org/2000/svg">
<rect x="65.6504" y="0.237915" width="1.13088" height="26.6289" fill="#C4C4C4"/>
<path d="M77.9194 25.728H78.5555C78.5224 26.0328 78.4352 26.3056 78.2938 26.5463C78.1524 26.7871 77.9525 26.9781 77.6941 27.1195C77.4357 27.2586 77.1132 27.3282 76.7267 27.3282C76.444 27.3282 76.1867 27.2752 75.9547 27.1692C75.725 27.0632 75.5273 26.913 75.3617 26.7186C75.196 26.522 75.0679 26.2868 74.9774 26.0129C74.889 25.7368 74.8448 25.4298 74.8448 25.0919V24.6115C74.8448 24.2735 74.889 23.9676 74.9774 23.6937C75.0679 23.4176 75.1971 23.1813 75.365 22.9847C75.5351 22.7882 75.7394 22.6369 75.9779 22.5308C76.2165 22.4248 76.4848 22.3718 76.783 22.3718C77.1475 22.3718 77.4556 22.4403 77.7074 22.5772C77.9592 22.7142 78.1546 22.9041 78.2938 23.1471C78.4352 23.3878 78.5224 23.6672 78.5555 23.9853H77.9194C77.8885 23.76 77.8311 23.5667 77.7471 23.4055C77.6632 23.2421 77.5439 23.1162 77.3893 23.0278C77.2347 22.9395 77.0326 22.8953 76.783 22.8953C76.5688 22.8953 76.3799 22.9361 76.2165 23.0179C76.0552 23.0996 75.9194 23.2155 75.809 23.3657C75.7007 23.5159 75.619 23.6959 75.5638 23.9058C75.5086 24.1156 75.481 24.3486 75.481 24.6048V25.0919C75.481 25.3282 75.5053 25.5502 75.5538 25.7578C75.6046 25.9654 75.6808 26.1477 75.7825 26.3045C75.8841 26.4613 76.0133 26.585 76.1701 26.6755C76.3269 26.7639 76.5124 26.8081 76.7267 26.8081C76.9984 26.8081 77.2148 26.765 77.3761 26.6789C77.5373 26.5927 77.6588 26.469 77.7405 26.3078C77.8244 26.1465 77.8841 25.9533 77.9194 25.728ZM83.5285 22.1664H84.052C84.052 22.4778 84.0056 22.7396 83.9128 22.9516C83.8223 23.1636 83.6754 23.3238 83.4722 23.432C83.2712 23.5402 83.0039 23.5943 82.6704 23.5943V23.1471C82.8957 23.1471 83.0702 23.1106 83.1939 23.0377C83.3198 22.9626 83.407 22.8522 83.4556 22.7064C83.5042 22.5607 83.5285 22.3806 83.5285 22.1664ZM82.1867 22.4381H82.8228V25.7015C82.8228 26.0637 82.7422 26.3652 82.581 26.606C82.4197 26.8467 82.2055 27.0278 81.9382 27.1493C81.6732 27.2686 81.3849 27.3282 81.0735 27.3282C80.7466 27.3282 80.4506 27.2686 80.1856 27.1493C79.9227 27.0278 79.714 26.8467 79.5594 26.606C79.407 26.3652 79.3308 26.0637 79.3308 25.7015V22.4381H79.9636V25.7015C79.9636 25.9533 80.01 26.1609 80.1028 26.3244C80.1955 26.4878 80.3247 26.6093 80.4904 26.6888C80.6582 26.7683 80.8526 26.8081 81.0735 26.8081C81.2966 26.8081 81.4909 26.7683 81.6566 26.6888C81.8245 26.6093 81.9548 26.4878 82.0475 26.3244C82.1403 26.1609 82.1867 25.9533 82.1867 25.7015V22.4381ZM81.3982 22.0272H80.9575L80.9542 21.5236C81.0669 21.517 81.1585 21.506 81.2292 21.4905C81.2999 21.4728 81.3518 21.4474 81.3849 21.4143C81.4181 21.379 81.4346 21.3326 81.4346 21.2752C81.4346 21.2288 81.4203 21.1901 81.3916 21.1592C81.3628 21.1261 81.3231 21.0996 81.2723 21.0797C81.2215 21.0576 81.1629 21.0421 81.0967 21.0333C81.0304 21.0245 80.9597 21.0201 80.8846 21.0201L80.9078 20.6689C81.0713 20.6689 81.2149 20.6832 81.3385 20.7119C81.4644 20.7407 81.5694 20.7826 81.6533 20.8378C81.7394 20.8931 81.8035 20.9593 81.8454 21.0366C81.8896 21.1117 81.9117 21.1957 81.9117 21.2884C81.9117 21.4563 81.8587 21.5789 81.7527 21.6562C81.6467 21.7313 81.5296 21.7777 81.4015 21.7953L81.3982 22.0272ZM85.9305 22.8655L84.3336 27.262H83.6809L85.5197 22.4381H85.9405L85.9305 22.8655ZM87.269 27.262L85.6688 22.8655L85.6588 22.4381H86.0796L87.925 27.262H87.269ZM87.1862 25.4762V25.9997H84.4761V25.4762H87.1862ZM93.4049 24.5121V25.0322H90.7942V24.5121H93.4049ZM90.8936 22.4381V27.262H90.2541V22.4381H90.8936ZM93.9615 22.4381V27.262H93.3254V22.4381H93.9615ZM96.9433 22.8655L95.3464 27.262H94.6937L96.5325 22.4381H96.9532L96.9433 22.8655ZM98.2818 27.262L96.6816 22.8655L96.6716 22.4381H97.0924L98.9378 27.262H98.2818ZM98.199 25.4762V25.9997H95.4889V25.4762H98.199ZM96.5325 21.1426L97.1719 22.1167H96.6451L95.7903 21.1426H96.5325ZM103.295 22.4381V27.262H102.652L100.223 23.5413V27.262H99.5839V22.4381H100.223L102.662 26.1686V22.4381H103.295ZM107.993 24.86V26.6258C107.933 26.7142 107.838 26.8136 107.708 26.924C107.577 27.0323 107.397 27.1272 107.168 27.209C106.94 27.2885 106.646 27.3282 106.286 27.3282C105.993 27.3282 105.722 27.2774 105.475 27.1758C105.229 27.072 105.016 26.9218 104.835 26.7252C104.656 26.5265 104.517 26.2857 104.418 26.003C104.321 25.7181 104.272 25.3956 104.272 25.0356V24.6612C104.272 24.3011 104.314 23.9798 104.398 23.6971C104.484 23.4143 104.61 23.1747 104.776 22.9781C104.941 22.7793 105.144 22.6291 105.385 22.5275C105.626 22.4237 105.902 22.3718 106.213 22.3718C106.582 22.3718 106.89 22.4359 107.138 22.564C107.387 22.6899 107.582 22.8644 107.721 23.0874C107.862 23.3105 107.953 23.5645 107.993 23.8495H107.353C107.324 23.675 107.267 23.5159 107.181 23.3724C107.097 23.2288 106.977 23.1139 106.82 23.0278C106.663 22.9395 106.461 22.8953 106.213 22.8953C105.99 22.8953 105.797 22.9361 105.634 23.0179C105.47 23.0996 105.335 23.2167 105.229 23.3691C105.123 23.5215 105.044 23.7059 104.991 23.9223C104.94 24.1388 104.915 24.3829 104.915 24.6545V25.0356C104.915 25.3139 104.947 25.5623 105.011 25.781C105.077 25.9997 105.171 26.1863 105.292 26.3409C105.414 26.4933 105.559 26.6093 105.726 26.6888C105.896 26.7683 106.084 26.8081 106.29 26.8081C106.517 26.8081 106.702 26.7893 106.843 26.7517C106.984 26.712 107.095 26.6656 107.174 26.6126C107.254 26.5574 107.314 26.5055 107.356 26.4569V25.3768H106.24V24.86H107.993ZM114.446 22.4381V27.262H113.804L111.375 23.5413V27.262H110.736V22.4381H111.375L113.814 26.1686V22.4381H114.446ZM118.73 24.5121V25.0322H116.12V24.5121H118.73ZM116.219 22.4381V27.262H115.58V22.4381H116.219ZM119.287 22.4381V27.262H118.651V22.4381H119.287ZM122.269 22.8655L120.672 27.262H120.019L121.858 22.4381H122.279L122.269 22.8655ZM123.607 27.262L122.007 22.8655L121.997 22.4381H122.418L124.263 27.262H123.607ZM123.524 25.4762V25.9997H120.814V25.4762H123.524ZM121.815 28.077C121.815 27.9776 121.845 27.8937 121.904 27.8252C121.966 27.7567 122.057 27.7225 122.176 27.7225C122.293 27.7225 122.382 27.7567 122.444 27.8252C122.508 27.8937 122.54 27.9776 122.54 28.077C122.54 28.172 122.508 28.2526 122.444 28.3188C122.382 28.3873 122.293 28.4216 122.176 28.4216C122.057 28.4216 121.966 28.3873 121.904 28.3188C121.845 28.2526 121.815 28.172 121.815 28.077ZM127.782 25.728H128.418C128.385 26.0328 128.298 26.3056 128.156 26.5463C128.015 26.7871 127.815 26.9781 127.556 27.1195C127.298 27.2586 126.976 27.3282 126.589 27.3282C126.306 27.3282 126.049 27.2752 125.817 27.1692C125.587 27.0632 125.39 26.913 125.224 26.7186C125.058 26.522 124.93 26.2868 124.84 26.0129C124.751 25.7368 124.707 25.4298 124.707 25.0919V24.6115C124.707 24.2735 124.751 23.9676 124.84 23.6937C124.93 23.4176 125.059 23.1813 125.227 22.9847C125.397 22.7882 125.602 22.6369 125.84 22.5308C126.079 22.4248 126.347 22.3718 126.645 22.3718C127.01 22.3718 127.318 22.4403 127.57 22.5772C127.822 22.7142 128.017 22.9041 128.156 23.1471C128.298 23.3878 128.385 23.6672 128.418 23.9853H127.782C127.751 23.76 127.693 23.5667 127.609 23.4055C127.526 23.2421 127.406 23.1162 127.252 23.0278C127.097 22.9395 126.895 22.8953 126.645 22.8953C126.431 22.8953 126.242 22.9361 126.079 23.0179C125.918 23.0996 125.782 23.2155 125.671 23.3657C125.563 23.5159 125.481 23.6959 125.426 23.9058C125.371 24.1156 125.343 24.3486 125.343 24.6048V25.0919C125.343 25.3282 125.368 25.5502 125.416 25.7578C125.467 25.9654 125.543 26.1477 125.645 26.3045C125.746 26.4613 125.876 26.585 126.032 26.6755C126.189 26.7639 126.375 26.8081 126.589 26.8081C126.861 26.8081 127.077 26.765 127.238 26.6789C127.4 26.5927 127.521 26.469 127.603 26.3078C127.687 26.1465 127.746 25.9533 127.782 25.728ZM133.885 25.728H134.521C134.488 26.0328 134.4 26.3056 134.259 26.5463C134.118 26.7871 133.918 26.9781 133.659 27.1195C133.401 27.2586 133.078 27.3282 132.692 27.3282C132.409 27.3282 132.152 27.2752 131.92 27.1692C131.69 27.0632 131.492 26.913 131.327 26.7186C131.161 26.522 131.033 26.2868 130.942 26.0129C130.854 25.7368 130.81 25.4298 130.81 25.0919V24.6115C130.81 24.2735 130.854 23.9676 130.942 23.6937C131.033 23.4176 131.162 23.1813 131.33 22.9847C131.5 22.7882 131.704 22.6369 131.943 22.5308C132.182 22.4248 132.45 22.3718 132.748 22.3718C133.113 22.3718 133.421 22.4403 133.672 22.5772C133.924 22.7142 134.12 22.9041 134.259 23.1471C134.4 23.3878 134.488 23.6672 134.521 23.9853H133.885C133.854 23.76 133.796 23.5667 133.712 23.4055C133.628 23.2421 133.509 23.1162 133.354 23.0278C133.2 22.9395 132.998 22.8953 132.748 22.8953C132.534 22.8953 132.345 22.9361 132.182 23.0179C132.02 23.0996 131.885 23.2155 131.774 23.3657C131.666 23.5159 131.584 23.6959 131.529 23.9058C131.474 24.1156 131.446 24.3486 131.446 24.6048V25.0919C131.446 25.3282 131.47 25.5502 131.519 25.7578C131.57 25.9654 131.646 26.1477 131.748 26.3045C131.849 26.4613 131.978 26.585 132.135 26.6755C132.292 26.7639 132.478 26.8081 132.692 26.8081C132.963 26.8081 133.18 26.765 133.341 26.6789C133.502 26.5927 133.624 26.469 133.706 26.3078C133.79 26.1465 133.849 25.9533 133.885 25.728ZM138.152 22.4381H138.788V25.7015C138.788 26.0637 138.707 26.3652 138.546 26.606C138.385 26.8467 138.171 27.0278 137.903 27.1493C137.638 27.2686 137.35 27.3282 137.039 27.3282C136.712 27.3282 136.416 27.2686 136.151 27.1493C135.888 27.0278 135.679 26.8467 135.525 26.606C135.372 26.3652 135.296 26.0637 135.296 25.7015V22.4381H135.929V25.7015C135.929 25.9533 135.975 26.1609 136.068 26.3244C136.161 26.4878 136.29 26.6093 136.456 26.6888C136.623 26.7683 136.818 26.8081 137.039 26.8081C137.262 26.8081 137.456 26.7683 137.622 26.6888C137.79 26.6093 137.92 26.4878 138.013 26.3244C138.105 26.1609 138.152 25.9533 138.152 25.7015V22.4381ZM136.658 28.077C136.658 27.9776 136.687 27.8937 136.747 27.8252C136.809 27.7567 136.899 27.7225 137.019 27.7225C137.136 27.7225 137.225 27.7567 137.287 27.8252C137.351 27.8937 137.383 27.9776 137.383 28.077C137.383 28.172 137.351 28.2526 137.287 28.3188C137.225 28.3873 137.136 28.4216 137.019 28.4216C136.899 28.4216 136.809 28.3873 136.747 28.3188C136.687 28.2526 136.658 28.172 136.658 28.077ZM143.032 26.5298L144.453 22.4381H145.146L143.36 27.262H142.866L143.032 26.5298ZM141.703 22.4381L143.112 26.5298L143.287 27.262H142.793L141.011 22.4381H141.703ZM147.329 22.8655L145.732 27.262H145.08L146.918 22.4381H147.339L147.329 22.8655ZM148.668 27.262L147.067 22.8655L147.057 22.4381H147.478L149.324 27.262H148.668ZM148.585 25.4762V25.9997H145.875V25.4762H148.585ZM146.918 21.1426L147.558 22.1167H147.031L146.176 21.1426H146.918ZM153.432 25.3702H152.143V24.85H153.432C153.681 24.85 153.884 24.8103 154.038 24.7307C154.193 24.6512 154.305 24.5408 154.376 24.3994C154.449 24.2581 154.485 24.0968 154.485 23.9157C154.485 23.7501 154.449 23.5943 154.376 23.4486C154.305 23.3028 154.193 23.1857 154.038 23.0974C153.884 23.0068 153.681 22.9615 153.432 22.9615H152.292V27.262H151.653V22.4381H153.432C153.796 22.4381 154.104 22.501 154.356 22.6269C154.608 22.7528 154.799 22.9273 154.929 23.1504C155.06 23.3713 155.125 23.6242 155.125 23.9091C155.125 24.2183 155.06 24.4823 154.929 24.7009C154.799 24.9196 154.608 25.0864 154.356 25.2012C154.104 25.3139 153.796 25.3702 153.432 25.3702ZM159.084 24.5121V25.0322H156.473V24.5121H159.084ZM156.573 22.4381V27.262H155.933V22.4381H156.573ZM159.641 22.4381V27.262H159.005V22.4381H159.641ZM163.537 22.4381H164.173V25.7015C164.173 26.0637 164.092 26.3652 163.931 26.606C163.77 26.8467 163.556 27.0278 163.288 27.1493C163.023 27.2686 162.735 27.3282 162.424 27.3282C162.097 27.3282 161.801 27.2686 161.536 27.1493C161.273 27.0278 161.064 26.8467 160.91 26.606C160.757 26.3652 160.681 26.0637 160.681 25.7015V22.4381H161.314V25.7015C161.314 25.9533 161.36 26.1609 161.453 26.3244C161.546 26.4878 161.675 26.6093 161.841 26.6888C162.008 26.7683 162.203 26.8081 162.424 26.8081C162.647 26.8081 162.841 26.7683 163.007 26.6888C163.175 26.6093 163.305 26.4878 163.398 26.3244C163.491 26.1609 163.537 25.9533 163.537 25.7015V22.4381ZM162.043 28.077C162.043 27.9776 162.072 27.8937 162.132 27.8252C162.194 27.7567 162.285 27.7225 162.404 27.7225C162.521 27.7225 162.61 27.7567 162.672 27.8252C162.736 27.8937 162.768 27.9776 162.768 28.077C162.768 28.172 162.736 28.2526 162.672 28.3188C162.61 28.3873 162.521 28.4216 162.404 28.4216C162.285 28.4216 162.194 28.3873 162.132 28.3188C162.072 28.2526 162.043 28.172 162.043 28.077ZM167.499 22.4381V27.262H166.86V22.4381H167.499ZM170.412 22.4381L168.407 24.6877L167.281 25.8572L167.175 25.1747L168.023 24.2404L169.643 22.4381H170.412ZM169.795 27.262L168.01 24.9097L168.391 24.4027L170.557 27.262H169.795ZM171.806 22.4381V27.262H171.167V22.4381H171.806ZM176.034 26.7418V27.262H173.48V26.7418H176.034ZM173.609 22.4381V27.262H172.969V22.4381H173.609ZM175.696 24.5121V25.0322H173.48V24.5121H175.696ZM176.001 22.4381V22.9615H173.48V22.4381H176.001ZM174.646 21.1062L175.467 22.0107V22.0438H174.957L174.46 21.4839L173.967 22.0438H173.463V22.0074L174.275 21.1062H174.646ZM174.079 28.0439C174.079 27.9445 174.109 27.8605 174.169 27.7921C174.231 27.7236 174.321 27.6894 174.44 27.6894C174.557 27.6894 174.647 27.7236 174.709 27.7921C174.773 27.8605 174.805 27.9445 174.805 28.0439C174.805 28.1388 174.773 28.2195 174.709 28.2857C174.647 28.3542 174.557 28.3884 174.44 28.3884C174.321 28.3884 174.231 28.3542 174.169 28.2857C174.109 28.2195 174.079 28.1388 174.079 28.0439ZM180.536 22.4381V27.262H179.894L177.465 23.5413V27.262H176.826V22.4381H177.465L179.904 26.1686V22.4381H180.536Z" fill="#9D9D9D"/>
<path d="M85.4563 15.5385V17.262H76.9929V15.5385H85.4563ZM77.421 1.27918V17.262H75.3024V1.27918H77.421ZM84.3366 8.1509V9.87432H76.9929V8.1509H84.3366ZM85.3465 1.27918V3.01358H76.9929V1.27918H85.3465ZM100.021 15.5385V17.262H92.0294V15.5385H100.021ZM92.4466 1.27918V17.262H90.328V1.27918H92.4466ZM114.388 15.5385V17.262H106.396V15.5385H114.388ZM106.814 1.27918V17.262H104.695V1.27918H106.814ZM121.334 1.27918V17.262H119.216V1.27918H121.334ZM133.132 9.7865H129.082L129.06 8.08504H132.737C133.345 8.08504 133.875 7.98258 134.329 7.77767C134.783 7.57277 135.134 7.28004 135.383 6.8995C135.639 6.51164 135.767 6.0506 135.767 5.51637C135.767 4.93092 135.654 4.45525 135.427 4.08934C135.207 3.71612 134.867 3.44534 134.406 3.27703C133.952 3.10139 133.374 3.01358 132.671 3.01358H129.554V17.262H127.435V1.27918H132.671C133.491 1.27918 134.223 1.36334 134.867 1.53165C135.511 1.69265 136.056 1.94879 136.502 2.30006C136.956 2.64401 137.3 3.0831 137.534 3.61732C137.768 4.15154 137.886 4.79188 137.886 5.53833C137.886 6.19696 137.717 6.79339 137.381 7.32761C137.044 7.85451 136.576 8.28628 135.976 8.62292C135.383 8.95955 134.688 9.17544 133.89 9.27057L133.132 9.7865ZM133.034 17.262H128.248L129.444 15.5385H133.034C133.707 15.5385 134.278 15.4215 134.746 15.1873C135.222 14.9531 135.584 14.6238 135.833 14.1993C136.082 13.7676 136.206 13.2589 136.206 12.6735C136.206 12.0807 136.1 11.5685 135.888 11.1367C135.675 10.7049 135.342 10.3719 134.889 10.1378C134.435 9.90359 133.85 9.7865 133.132 9.7865H130.114L130.136 8.08504H134.263L134.713 8.69976C135.482 8.76562 136.133 8.98516 136.667 9.35839C137.201 9.72429 137.607 10.1927 137.886 10.7635C138.171 11.3343 138.314 11.9636 138.314 12.6515C138.314 13.6468 138.094 14.4884 137.655 15.1763C137.223 15.8569 136.612 16.3765 135.822 16.7351C135.031 17.0863 134.102 17.262 133.034 17.262ZM143.416 16.1862C143.416 15.8422 143.522 15.5532 143.734 15.319C143.954 15.0775 144.268 14.9568 144.678 14.9568C145.088 14.9568 145.399 15.0775 145.611 15.319C145.831 15.5532 145.941 15.8422 145.941 16.1862C145.941 16.5228 145.831 16.8082 145.611 17.0424C145.399 17.2766 145.088 17.3937 144.678 17.3937C144.268 17.3937 143.954 17.2766 143.734 17.0424C143.522 16.8082 143.416 16.5228 143.416 16.1862ZM157.025 14.836L161.735 1.27918H164.029L158.112 17.262H156.477L157.025 14.836ZM152.624 1.27918L157.289 14.836L157.871 17.262H156.235L150.329 1.27918H152.624ZM180.723 1.27918V17.262H178.593L170.547 4.93458V17.262H168.428V1.27918H170.547L178.626 13.6395V1.27918H180.723Z" fill="#9D9D9D"/>
<path d="M0.167235 17.9773C0.523461 16.9178 1.5356 15.5637 3.6051 14.3739C5.68955 13.2326 7.87367 12.2844 10.1303 11.5411C9.86151 11.4863 9.625 11.3279 9.47165 11.1C9.3183 10.8722 9.26038 10.5931 9.31037 10.3229C9.42911 9.60906 10.0002 8.30595 15.1796 6.20963C17.6109 5.28455 20.0982 4.51436 22.6264 3.90368C22.6264 3.90368 19.2847 5.30311 16.6554 6.62889C15.5191 7.2009 14.4199 7.8443 13.3646 8.55524C12.2337 9.32011 12.0075 9.73371 12.0075 9.88102C12.0075 10.4476 13.9639 10.3173 14.9478 10.2493L16.0221 10.153L15.2022 11.6374L15.0439 11.6827C12.7822 12.3343 3.11317 15.5184 2.47422 18.136C1.98795 20.1473 10.707 18.3456 13.5512 17.6431C15.1287 17.2465 16.8364 16.8329 18.7249 16.204L17.4979 18.4702C13.3589 19.8753 -1.7496 23.7054 0.167235 17.9773ZM44.7633 15.1445C44.2601 14.4079 41.3707 15.2635 41.3707 15.2635L42.1736 13.6884L42.3206 13.6431C44.4693 12.9178 57.1068 7.37677 54.0535 5.55807C51.5825 4.07932 36.6097 8.78753 34.7042 9.52408L33.8391 9.85269L35.117 7.30878L35.264 7.25779C37.1469 6.6119 42.9879 4.83286 44.6955 4.42493C50.8814 2.86685 54.4832 3.29178 55.829 4.73654C56.1047 4.99029 56.3116 5.31002 56.4302 5.66578C56.5489 6.02154 56.5755 6.40167 56.5075 6.77054C56.27 8.017 55.1844 9.26912 53.1827 10.6062C51.1513 11.8997 48.9933 12.9818 46.7424 13.8357C47.039 13.9158 47.2928 14.1084 47.4501 14.3728C47.6074 14.6372 47.6557 14.9526 47.5849 15.2521C47.3417 16.5269 45.9564 18.1303 41.3142 20.153C32.482 24.034 16.0165 26.6685 5.51062 26.6742C20.8283 25.9547 35.4788 21.4448 40.0872 19.5411C44.5372 17.7167 45.2948 15.915 44.7633 15.1388V15.1445ZM18.069 21.3258C18.1913 20.9202 18.3483 20.5259 18.5383 20.1473L27.263 2.58357L30.4125 1.67139L20.8001 19.6827L20.54 20.136C20.3725 20.4299 20.2433 20.744 20.1555 21.0708C19.9632 21.7677 22.355 20.4419 22.5473 20.3286C20.6135 22.7592 17.4131 23.2861 18.069 21.3258ZM24.0626 19.6544C24.185 19.2488 24.342 18.8545 24.532 18.4759L33.2623 0.912181L36.4062 0L26.7937 18.0113L26.5393 18.4646C26.3718 18.7585 26.2426 19.0727 26.1548 19.3994C25.9569 20.068 28.3317 18.7649 28.5466 18.6516C26.6354 21.0878 23.4067 21.6204 24.0626 19.6544ZM30.0563 18.0736C30.1735 17.6671 30.3287 17.2725 30.52 16.8952L32.9344 12.136L35.5693 11.1898C35.5693 11.1898 32.2106 17.3598 32.1428 17.8017C32.024 18.5156 34.3423 17.1728 34.5346 17.0595C32.5951 19.5014 29.3947 20.068 30.0563 18.0736Z" fill="#A50D12"/>
</svg>
