<svg width="300" height="47" viewBox="0 0 300 47" fill="none" xmlns="http://www.w3.org/2000/svg">
<rect x="108.813" y="0.698242" width="1.87438" height="44.1363" fill="white"/>
<path d="M127.997 41.5107H128.84C128.796 41.9148 128.681 42.2765 128.493 42.5958C128.306 42.915 128.041 43.1683 127.698 43.3558C127.356 43.5403 126.928 43.6325 126.415 43.6325C126.041 43.6325 125.699 43.5623 125.392 43.4217C125.087 43.2811 124.825 43.0819 124.605 42.8242C124.386 42.5636 124.216 42.2516 124.096 41.8885C123.979 41.5224 123.92 41.1153 123.92 40.6672V40.0302C123.92 39.5821 123.979 39.1765 124.096 38.8133C124.216 38.4472 124.387 38.1339 124.61 37.8732C124.835 37.6126 125.106 37.4119 125.423 37.2714C125.739 37.1308 126.095 37.0605 126.49 37.0605C126.973 37.0605 127.382 37.1513 127.716 37.3329C128.05 37.5144 128.309 37.7663 128.493 38.0885C128.681 38.4077 128.796 38.7782 128.84 39.1999H127.997C127.956 38.9012 127.88 38.6449 127.769 38.4311C127.657 38.2144 127.499 38.0475 127.294 37.9303C127.089 37.8132 126.821 37.7546 126.49 37.7546C126.206 37.7546 125.956 37.8088 125.739 37.9171C125.525 38.0255 125.345 38.1793 125.199 38.3784C125.055 38.5776 124.947 38.8163 124.873 39.0945C124.8 39.3727 124.764 39.6817 124.764 40.0214V40.6672C124.764 40.9806 124.796 41.2749 124.86 41.5502C124.928 41.8255 125.029 42.0671 125.163 42.2751C125.298 42.483 125.469 42.647 125.677 42.7671C125.885 42.8843 126.131 42.9428 126.415 42.9428C126.776 42.9428 127.063 42.8857 127.276 42.7715C127.49 42.6573 127.651 42.4933 127.76 42.2795C127.871 42.0657 127.95 41.8094 127.997 41.5107ZM135.434 36.7881H136.129C136.129 37.2011 136.067 37.5481 135.944 37.8293C135.824 38.1104 135.629 38.3228 135.36 38.4663C135.093 38.6098 134.739 38.6815 134.297 38.6815V38.0885C134.595 38.0885 134.827 38.0402 134.991 37.9435C135.158 37.8439 135.273 37.6975 135.338 37.5042C135.402 37.3109 135.434 37.0722 135.434 36.7881ZM133.655 37.1484H134.499V41.4755C134.499 41.9558 134.392 42.3556 134.178 42.6748C133.964 42.9941 133.68 43.2342 133.326 43.3953C132.974 43.5535 132.592 43.6325 132.179 43.6325C131.746 43.6325 131.353 43.5535 131.002 43.3953C130.653 43.2342 130.377 42.9941 130.172 42.6748C129.969 42.3556 129.868 41.9558 129.868 41.4755V37.1484H130.707V41.4755C130.707 41.8094 130.769 42.0847 130.892 42.3014C131.015 42.5182 131.186 42.6792 131.406 42.7847C131.629 42.8901 131.886 42.9428 132.179 42.9428C132.475 42.9428 132.733 42.8901 132.952 42.7847C133.175 42.6792 133.348 42.5182 133.471 42.3014C133.594 42.0847 133.655 41.8094 133.655 41.4755V37.1484ZM132.61 36.6036H132.025L132.021 35.9359C132.17 35.9271 132.292 35.9124 132.386 35.8919C132.479 35.8685 132.548 35.8348 132.592 35.7909C132.636 35.744 132.658 35.6825 132.658 35.6064C132.658 35.5449 132.639 35.4936 132.601 35.4526C132.563 35.4087 132.51 35.3736 132.443 35.3472C132.375 35.3179 132.298 35.2974 132.21 35.2857C132.122 35.274 132.028 35.2681 131.929 35.2681L131.96 34.8025C132.176 34.8025 132.367 34.8215 132.531 34.8596C132.698 34.8976 132.837 34.9533 132.948 35.0265C133.062 35.0997 133.147 35.1876 133.203 35.2901C133.261 35.3897 133.291 35.501 133.291 35.624C133.291 35.8465 133.22 36.0091 133.08 36.1116C132.939 36.2112 132.784 36.2727 132.614 36.2961L132.61 36.6036ZM138.619 37.7151L136.502 43.5447H135.637L138.075 37.1484H138.633L138.619 37.7151ZM140.394 43.5447L138.272 37.7151L138.259 37.1484H138.817L141.264 43.5447H140.394ZM140.284 41.1768V41.8709H136.691V41.1768H140.284ZM148.53 39.8984V40.5881H145.068V39.8984H148.53ZM145.2 37.1484V43.5447H144.352V37.1484H145.2ZM149.268 37.1484V43.5447H148.425V37.1484H149.268ZM153.222 37.7151L151.105 43.5447H150.239L152.677 37.1484H153.235L153.222 37.7151ZM154.997 43.5447L152.875 37.7151L152.862 37.1484H153.42L155.867 43.5447H154.997ZM154.887 41.1768V41.8709H151.293V41.1768H154.887ZM152.677 35.4307L153.525 36.7222H152.827L151.693 35.4307H152.677ZM161.644 37.1484V43.5447H160.791L157.571 38.6113V43.5447H156.723V37.1484H157.571L160.804 42.095V37.1484H161.644ZM167.873 40.3597V42.7012C167.794 42.8184 167.668 42.9501 167.495 43.0966C167.322 43.2401 167.084 43.366 166.779 43.4744C166.477 43.5798 166.088 43.6325 165.61 43.6325C165.221 43.6325 164.862 43.5652 164.534 43.4305C164.209 43.2928 163.926 43.0937 163.686 42.833C163.449 42.5694 163.265 42.2502 163.133 41.8753C163.004 41.4975 162.939 41.0699 162.939 40.5925V40.0961C162.939 39.6187 162.995 39.1926 163.106 38.8177C163.221 38.4428 163.388 38.1251 163.607 37.8644C163.827 37.6008 164.096 37.4017 164.416 37.267C164.735 37.1293 165.101 37.0605 165.514 37.0605C166.003 37.0605 166.411 37.1454 166.74 37.3153C167.07 37.4822 167.328 37.7136 167.513 38.0094C167.7 38.3052 167.82 38.642 167.873 39.0198H167.025C166.987 38.7884 166.911 38.5776 166.797 38.3872C166.685 38.1968 166.526 38.0445 166.318 37.9303C166.11 37.8132 165.842 37.7546 165.514 37.7546C165.218 37.7546 164.962 37.8088 164.745 37.9171C164.528 38.0255 164.35 38.1807 164.209 38.3828C164.069 38.5849 163.963 38.8294 163.893 39.1165C163.825 39.4035 163.792 39.7271 163.792 40.0873V40.5925C163.792 40.9615 163.834 41.291 163.919 41.581C164.007 41.8709 164.131 42.1184 164.293 42.3234C164.454 42.5255 164.645 42.6792 164.868 42.7847C165.094 42.8901 165.343 42.9428 165.615 42.9428C165.917 42.9428 166.161 42.9179 166.349 42.8681C166.536 42.8154 166.682 42.7539 166.788 42.6836C166.893 42.6104 166.974 42.5416 167.029 42.4772V41.045H165.549V40.3597H167.873ZM176.431 37.1484V43.5447H175.578L172.358 38.6113V43.5447H171.51V37.1484H172.358L175.592 42.095V37.1484H176.431ZM182.111 39.8984V40.5881H178.649V39.8984H182.111ZM178.781 37.1484V43.5447H177.933V37.1484H178.781ZM182.849 37.1484V43.5447H182.005V37.1484H182.849ZM186.803 37.7151L184.685 43.5447H183.82L186.258 37.1484H186.816L186.803 37.7151ZM188.578 43.5447L186.456 37.7151L186.442 37.1484H187L189.447 43.5447H188.578ZM188.468 41.1768V41.8709H184.874V41.1768H188.468ZM186.201 44.6254C186.201 44.4936 186.24 44.3823 186.319 44.2915C186.401 44.2007 186.522 44.1553 186.68 44.1553C186.835 44.1553 186.954 44.2007 187.036 44.2915C187.12 44.3823 187.163 44.4936 187.163 44.6254C187.163 44.7513 187.12 44.8582 187.036 44.9461C186.954 45.0369 186.835 45.0823 186.68 45.0823C186.522 45.0823 186.401 45.0369 186.319 44.9461C186.24 44.8582 186.201 44.7513 186.201 44.6254ZM194.113 41.5107H194.956C194.912 41.9148 194.797 42.2765 194.609 42.5958C194.422 42.915 194.157 43.1683 193.814 43.3558C193.471 43.5403 193.044 43.6325 192.531 43.6325C192.156 43.6325 191.815 43.5623 191.508 43.4217C191.203 43.2811 190.941 43.0819 190.721 42.8242C190.502 42.5636 190.332 42.2516 190.212 41.8885C190.095 41.5224 190.036 41.1153 190.036 40.6672V40.0302C190.036 39.5821 190.095 39.1765 190.212 38.8133C190.332 38.4472 190.503 38.1339 190.726 37.8732C190.951 37.6126 191.222 37.4119 191.538 37.2714C191.855 37.1308 192.211 37.0605 192.606 37.0605C193.089 37.0605 193.498 37.1513 193.832 37.3329C194.165 37.5144 194.425 37.7663 194.609 38.0885C194.797 38.4077 194.912 38.7782 194.956 39.1999H194.113C194.072 38.9012 193.996 38.6449 193.884 38.4311C193.773 38.2144 193.615 38.0475 193.41 37.9303C193.205 37.8132 192.937 37.7546 192.606 37.7546C192.322 37.7546 192.071 37.8088 191.855 37.9171C191.641 38.0255 191.461 38.1793 191.314 38.3784C191.171 38.5776 191.063 38.8163 190.989 39.0945C190.916 39.3727 190.879 39.6817 190.879 40.0214V40.6672C190.879 40.9806 190.912 41.2749 190.976 41.5502C191.043 41.8255 191.145 42.0671 191.279 42.2751C191.414 42.483 191.585 42.647 191.793 42.7671C192.001 42.8843 192.247 42.9428 192.531 42.9428C192.892 42.9428 193.179 42.8857 193.392 42.7715C193.606 42.6573 193.767 42.4933 193.876 42.2795C193.987 42.0657 194.066 41.8094 194.113 41.5107ZM202.205 41.5107H203.048C203.004 41.9148 202.889 42.2765 202.701 42.5958C202.514 42.915 202.249 43.1683 201.906 43.3558C201.563 43.5403 201.136 43.6325 200.623 43.6325C200.248 43.6325 199.907 43.5623 199.6 43.4217C199.295 43.2811 199.033 43.0819 198.813 42.8242C198.594 42.5636 198.424 42.2516 198.304 41.8885C198.187 41.5224 198.128 41.1153 198.128 40.6672V40.0302C198.128 39.5821 198.187 39.1765 198.304 38.8133C198.424 38.4472 198.595 38.1339 198.818 37.8732C199.043 37.6126 199.314 37.4119 199.63 37.2714C199.947 37.1308 200.303 37.0605 200.698 37.0605C201.181 37.0605 201.59 37.1513 201.924 37.3329C202.258 37.5144 202.517 37.7663 202.701 38.0885C202.889 38.4077 203.004 38.7782 203.048 39.1999H202.205C202.164 38.9012 202.088 38.6449 201.976 38.4311C201.865 38.2144 201.707 38.0475 201.502 37.9303C201.297 37.8132 201.029 37.7546 200.698 37.7546C200.414 37.7546 200.164 37.8088 199.947 37.9171C199.733 38.0255 199.553 38.1793 199.406 38.3784C199.263 38.5776 199.155 38.8163 199.081 39.0945C199.008 39.3727 198.972 39.6817 198.972 40.0214V40.6672C198.972 40.9806 199.004 41.2749 199.068 41.5502C199.136 41.8255 199.237 42.0671 199.371 42.2751C199.506 42.483 199.677 42.647 199.885 42.7671C200.093 42.8843 200.339 42.9428 200.623 42.9428C200.984 42.9428 201.271 42.8857 201.484 42.7715C201.698 42.6573 201.859 42.4933 201.968 42.2795C202.079 42.0657 202.158 41.8094 202.205 41.5107ZM207.863 37.1484H208.707V41.4755C208.707 41.9558 208.6 42.3556 208.386 42.6748C208.172 42.9941 207.888 43.2342 207.534 43.3953C207.182 43.5535 206.8 43.6325 206.387 43.6325C205.954 43.6325 205.561 43.5535 205.21 43.3953C204.861 43.2342 204.584 42.9941 204.379 42.6748C204.177 42.3556 204.076 41.9558 204.076 41.4755V37.1484H204.915V41.4755C204.915 41.8094 204.977 42.0847 205.1 42.3014C205.223 42.5182 205.394 42.6792 205.614 42.7847C205.836 42.8901 206.094 42.9428 206.387 42.9428C206.683 42.9428 206.941 42.8901 207.16 42.7847C207.383 42.6792 207.556 42.5182 207.679 42.3014C207.802 42.0847 207.863 41.8094 207.863 41.4755V37.1484ZM205.882 44.6254C205.882 44.4936 205.921 44.3823 206 44.2915C206.082 44.2007 206.203 44.1553 206.361 44.1553C206.516 44.1553 206.635 44.2007 206.717 44.2915C206.801 44.3823 206.844 44.4936 206.844 44.6254C206.844 44.7513 206.801 44.8582 206.717 44.9461C206.635 45.0369 206.516 45.0823 206.361 45.0823C206.203 45.0823 206.082 45.0369 206 44.9461C205.921 44.8582 205.882 44.7513 205.882 44.6254ZM214.334 42.5738L216.219 37.1484H217.137L214.769 43.5447H214.114L214.334 42.5738ZM212.572 37.1484L214.44 42.5738L214.672 43.5447H214.018L211.654 37.1484H212.572ZM220.032 37.7151L217.914 43.5447H217.049L219.487 37.1484H220.045L220.032 37.7151ZM221.807 43.5447L219.685 37.7151L219.672 37.1484H220.23L222.677 43.5447H221.807ZM221.697 41.1768V41.8709H218.103V41.1768H221.697ZM219.487 35.4307L220.335 36.7222H219.637L218.503 35.4307H219.487ZM228.124 41.0362H226.415V40.3465H228.124C228.455 40.3465 228.723 40.2938 228.928 40.1884C229.133 40.0829 229.282 39.9365 229.376 39.7491C229.473 39.5616 229.521 39.3478 229.521 39.1077C229.521 38.888 229.473 38.6815 229.376 38.4882C229.282 38.2949 229.133 38.1397 228.928 38.0226C228.723 37.9025 228.455 37.8425 228.124 37.8425H226.613V43.5447H225.765V37.1484H228.124C228.607 37.1484 229.016 37.2318 229.35 37.3988C229.684 37.5657 229.937 37.7971 230.11 38.0929C230.282 38.3857 230.369 38.7211 230.369 39.0989C230.369 39.5089 230.282 39.8589 230.11 40.1488C229.937 40.4388 229.684 40.6599 229.35 40.8122C229.016 40.9615 228.607 41.0362 228.124 41.0362ZM235.619 39.8984V40.5881H232.157V39.8984H235.619ZM232.289 37.1484V43.5447H231.441V37.1484H232.289ZM236.357 37.1484V43.5447H235.513V37.1484H236.357ZM241.523 37.1484H242.366V41.4755C242.366 41.9558 242.259 42.3556 242.046 42.6748C241.832 42.9941 241.548 43.2342 241.193 43.3953C240.842 43.5535 240.46 43.6325 240.047 43.6325C239.613 43.6325 239.221 43.5535 238.869 43.3953C238.521 43.2342 238.244 42.9941 238.039 42.6748C237.837 42.3556 237.736 41.9558 237.736 41.4755V37.1484H238.575V41.4755C238.575 41.8094 238.637 42.0847 238.76 42.3014C238.883 42.5182 239.054 42.6792 239.274 42.7847C239.496 42.8901 239.754 42.9428 240.047 42.9428C240.343 42.9428 240.6 42.8901 240.82 42.7847C241.043 42.6792 241.215 42.5182 241.338 42.3014C241.461 42.0847 241.523 41.8094 241.523 41.4755V37.1484ZM239.542 44.6254C239.542 44.4936 239.581 44.3823 239.66 44.2915C239.742 44.2007 239.862 44.1553 240.02 44.1553C240.176 44.1553 240.294 44.2007 240.376 44.2915C240.461 44.3823 240.504 44.4936 240.504 44.6254C240.504 44.7513 240.461 44.8582 240.376 44.9461C240.294 45.0369 240.176 45.0823 240.02 45.0823C239.862 45.0823 239.742 45.0369 239.66 44.9461C239.581 44.8582 239.542 44.7513 239.542 44.6254ZM246.777 37.1484V43.5447H245.929V37.1484H246.777ZM250.639 37.1484L247.981 40.1313L246.487 41.682L246.346 40.777L247.471 39.5382L249.619 37.1484H250.639ZM249.821 43.5447L247.454 40.4256L247.959 39.7535L250.832 43.5447H249.821ZM252.488 37.1484V43.5447H251.64V37.1484H252.488ZM258.094 42.855V43.5447H254.707V42.855H258.094ZM254.878 37.1484V43.5447H254.03V37.1484H254.878ZM257.645 39.8984V40.5881H254.707V39.8984H257.645ZM258.05 37.1484V37.8425H254.707V37.1484H258.05ZM256.253 35.3823L257.342 36.5816V36.6256H256.666L256.007 35.8831L255.352 36.6256H254.685V36.5773L255.761 35.3823H256.253ZM255.502 44.5814C255.502 44.4497 255.541 44.3384 255.62 44.2476C255.702 44.1568 255.822 44.1114 255.981 44.1114C256.136 44.1114 256.254 44.1568 256.336 44.2476C256.421 44.3384 256.464 44.4497 256.464 44.5814C256.464 44.7074 256.421 44.8143 256.336 44.9021C256.254 44.9929 256.136 45.0383 255.981 45.0383C255.822 45.0383 255.702 44.9929 255.62 44.9021C255.541 44.8143 255.502 44.7074 255.502 44.5814ZM264.064 37.1484V43.5447H263.212L259.991 38.6113V43.5447H259.144V37.1484H259.991L263.225 42.095V37.1484H264.064Z" fill="white"/>
<path d="M137.659 23.4528V25.738H126.437V23.4528H137.659ZM127.005 4.5454V25.738H124.195V4.5454H127.005ZM136.175 13.6571V15.9423H126.437V13.6571H136.175ZM137.514 4.5454V6.84515H126.437V4.5454H137.514ZM156.971 23.4528V25.738H146.375V23.4528H156.971ZM146.928 4.5454V25.738H144.119V4.5454H146.928ZM176.021 23.4528V25.738H165.425V23.4528H176.021ZM165.978 4.5454V25.738H163.169V4.5454H165.978ZM185.232 4.5454V25.738H182.423V4.5454H185.232ZM200.876 15.8258H195.505L195.476 13.5697H200.352C201.158 13.5697 201.861 13.4339 202.463 13.1622C203.064 12.8905 203.53 12.5023 203.86 11.9978C204.2 11.4835 204.369 10.8721 204.369 10.1638C204.369 9.38749 204.219 8.75676 203.918 8.27158C203.627 7.77669 203.176 7.41766 202.565 7.19448C201.963 6.96159 201.196 6.84515 200.265 6.84515H196.131V25.738H193.322V4.5454H200.265C201.352 4.5454 202.322 4.65699 203.176 4.88017C204.03 5.09365 204.753 5.43328 205.345 5.89905C205.946 6.35512 206.402 6.93733 206.713 7.6457C207.023 8.35406 207.179 9.20312 207.179 10.1929C207.179 11.0662 206.955 11.8571 206.509 12.5654C206.063 13.2641 205.442 13.8366 204.646 14.283C203.86 14.7293 202.938 15.0156 201.88 15.1417L200.876 15.8258ZM200.745 25.738H194.399L195.986 23.4528H200.745C201.638 23.4528 202.395 23.2976 203.016 22.9871C203.647 22.6766 204.127 22.2399 204.457 21.6771C204.787 21.1046 204.952 20.4302 204.952 19.6539C204.952 18.8679 204.811 18.1886 204.53 17.6161C204.248 17.0436 203.807 16.6021 203.205 16.2916C202.603 15.9811 201.827 15.8258 200.876 15.8258H196.873L196.903 13.5697H202.375L202.972 14.3848C203.991 14.4722 204.855 14.7633 205.563 15.2582C206.271 15.7433 206.81 16.3644 207.179 17.1213C207.557 17.8781 207.746 18.7126 207.746 19.6248C207.746 20.9445 207.455 22.0604 206.873 22.9725C206.3 23.8749 205.49 24.5639 204.442 25.0394C203.394 25.5052 202.162 25.738 200.745 25.738ZM214.512 24.3116C214.512 23.8555 214.652 23.4722 214.934 23.1617C215.225 22.8415 215.642 22.6814 216.185 22.6814C216.729 22.6814 217.141 22.8415 217.423 23.1617C217.714 23.4722 217.859 23.8555 217.859 24.3116C217.859 24.758 217.714 25.1364 217.423 25.4469C217.141 25.7574 216.729 25.9127 216.185 25.9127C215.642 25.9127 215.225 25.7574 214.934 25.4469C214.652 25.1364 214.512 24.758 214.512 24.3116ZM232.557 22.5213L238.802 4.5454H241.844L233.998 25.738H231.83L232.557 22.5213ZM226.721 4.5454L232.907 22.5213L233.678 25.738H231.509L223.679 4.5454H226.721ZM263.98 4.5454V25.738H261.156L250.487 9.39234V25.738H247.678V4.5454H250.487L261.199 20.9348V4.5454H263.98Z" fill="white"/>
<path d="M0.277185 30.1006C0.867615 28.3446 2.54519 26.1002 5.9753 24.1282C9.4302 22.2364 13.0503 20.6648 16.7905 19.4328C16.345 19.342 15.953 19.0794 15.6989 18.7018C15.4447 18.3242 15.3487 17.8617 15.4316 17.4138C15.6284 16.2306 16.5749 14.0707 25.1596 10.5962C29.1894 9.06288 33.3119 7.78632 37.5024 6.77415C37.5024 6.77415 31.9636 9.09365 27.6056 11.2911C25.7222 12.2392 23.9004 13.3056 22.1512 14.4839C20.2768 15.7517 19.9019 16.4372 19.9019 16.6813C19.9019 17.6204 23.1446 17.4044 24.7753 17.2917L26.556 17.1321L25.1971 19.5924L24.9347 19.6676C21.1859 20.7475 5.15995 26.0251 4.10092 30.3636C3.29494 33.6973 17.7464 30.711 22.4605 29.5466C25.0752 28.8892 27.9056 28.2037 31.0358 27.1614L29.0021 30.9176C22.1418 33.2465 -2.89989 39.5946 0.277185 30.1006ZM74.1934 25.4053C73.3593 24.1845 68.5702 25.6025 68.5702 25.6025L69.901 22.9919L70.1447 22.9168C73.706 21.7147 94.6522 12.5306 89.5914 9.51623C85.4959 7.06526 60.6791 14.8689 57.5208 16.0897L56.0869 16.6344L58.2049 12.418L58.4486 12.3334C61.5694 11.2629 71.2506 8.31422 74.0809 7.63809C84.3338 5.05565 90.3037 5.75995 92.5342 8.15458C92.9912 8.57515 93.3341 9.1051 93.5308 9.69475C93.7275 10.2844 93.7715 10.9145 93.6588 11.5258C93.2652 13.5918 91.4658 15.6671 88.1481 17.8833C84.7811 20.0271 81.2044 21.8207 77.4735 23.236C77.9652 23.3688 78.3859 23.6881 78.6466 24.1263C78.9072 24.5646 78.9874 25.0873 78.87 25.5837C78.467 27.6966 76.1708 30.3542 68.4765 33.7067C53.8376 40.1393 26.5466 44.506 9.13363 44.5154C34.5221 43.3227 58.8047 35.8477 66.4428 32.6925C73.8185 29.6687 75.0743 26.6824 74.1934 25.3959V25.4053ZM29.9486 35.6505C30.1514 34.9782 30.4116 34.3247 30.7265 33.6973L45.1873 4.58611L50.4075 3.07421L34.4753 32.9272L34.0442 33.6785C33.7666 34.1656 33.5524 34.6863 33.4069 35.228C33.0882 36.383 37.0525 34.1856 37.3712 33.9978C34.166 38.0264 28.8615 38.8997 29.9486 35.6505ZM39.8828 32.8803C40.0856 32.208 40.3458 31.5545 40.6607 30.927L55.1309 1.81586L60.3417 0.303955L44.4095 30.157L43.9877 30.9082C43.7102 31.3954 43.496 31.9161 43.3504 32.4577C43.0224 33.5658 46.9586 31.4059 47.3148 31.2181C44.1471 35.2561 38.7957 36.1389 39.8828 32.8803ZM49.8171 30.2603C50.0113 29.5864 50.2686 28.9324 50.5856 28.307L54.5874 20.4188L58.9547 18.8506C58.9547 18.8506 53.3878 29.0771 53.2753 29.8095C53.0785 30.9928 56.921 28.7672 57.2396 28.5793C54.025 32.6267 48.7206 33.5658 49.8171 30.2603Z" fill="white"/>
</svg>
