<svg width="75" height="36" viewBox="0 0 75 36" fill="none" xmlns="http://www.w3.org/2000/svg">
<path d="M0.221748 23.8027C0.694092 22.3999 2.03615 20.607 4.78024 19.0317C7.54416 17.5205 10.4402 16.265 13.4324 15.2809C13.076 15.2083 12.7624 14.9986 12.5591 14.6969C12.3558 14.3953 12.279 14.0258 12.3452 13.668C12.5027 12.7228 13.2599 10.9974 20.1277 8.22181C23.3515 6.99696 26.6495 5.97721 30.0019 5.16864C30.0019 5.16864 25.5709 7.02155 22.0845 8.77693C20.5778 9.5343 19.1203 10.3862 17.721 11.3275C16.2215 12.3402 15.9216 12.8878 15.9216 13.0829C15.9216 13.833 18.5157 13.6605 19.8203 13.5705L21.2448 13.443L20.1577 15.4084L19.9477 15.4684C16.9487 16.3311 4.12796 20.547 3.28074 24.0128C2.63595 26.6759 14.1971 24.2904 17.9684 23.3601C20.0602 22.835 22.3244 22.2874 24.8286 21.4547L23.2017 24.4554C17.7135 26.3158 -2.31991 31.3869 0.221748 23.8027ZM59.3547 20.0519C58.6874 19.0767 54.8562 20.2095 54.8562 20.2095L55.9208 18.124L56.1158 18.064C58.9648 17.1038 75.7218 9.76715 71.6731 7.35912C68.3967 5.40119 48.5433 11.6351 46.0166 12.6103L44.8695 13.0454L46.5639 9.67713L46.7589 9.60962C49.2555 8.75443 57.0005 6.39891 59.2647 5.85879C67.467 3.79584 72.243 4.35846 74.0274 6.27138C74.3929 6.60735 74.6673 7.03069 74.8246 7.50173C74.982 7.97277 75.0172 8.47608 74.9271 8.96447C74.6122 10.6148 73.1726 12.2727 70.5185 14.0431C67.8249 15.7556 64.9635 17.1884 61.9788 18.319C62.3721 18.4251 62.7087 18.6801 62.9173 19.0302C63.1258 19.3803 63.1899 19.7979 63.096 20.1944C62.7736 21.8823 60.9367 24.0053 54.7812 26.6834C43.0701 31.822 21.2373 35.3103 7.30691 35.3178C27.6177 34.3651 47.0438 28.3938 53.1543 25.8732C59.0548 23.4577 60.0595 21.0721 59.3547 20.0444V20.0519ZM23.9589 28.2362C24.1211 27.6992 24.3293 27.1771 24.5812 26.6759L36.1499 3.42075L40.326 2.21299L27.5802 26.0607L27.2353 26.6609C27.0133 27.05 26.842 27.466 26.7255 27.8986C26.4706 28.8214 29.642 27.066 29.8969 26.9159C27.3328 30.1341 23.0892 30.8318 23.9589 28.2362ZM31.9063 26.0232C32.0685 25.4862 32.2767 24.9641 32.5286 24.4629L44.1047 1.20777L48.2734 0L35.5276 23.8478L35.1902 24.4479C34.9682 24.837 34.7968 25.253 34.6804 25.6857C34.4179 26.5709 37.5669 24.8455 37.8518 24.6954C35.3176 27.9211 31.0366 28.6263 31.9063 26.0232ZM39.8537 23.9303C40.009 23.3919 40.2149 22.8695 40.4684 22.3699L43.6699 16.0685L47.1637 14.8158C47.1637 14.8158 42.7102 22.9851 42.6202 23.5702C42.4628 24.5154 45.5368 22.7375 45.7917 22.5875C43.22 25.8207 38.9764 26.5709 39.8537 23.9303Z" fill="#A50D12"/>
</svg>
