<svg width="24" height="24" viewBox="0 0 24 24" fill="none" xmlns="http://www.w3.org/2000/svg">
<path d="M19.4144 18.9026C19.1133 19.233 18.7507 19.4919 18.3945 19.7565C17.6434 20.3146 16.8339 20.7699 15.9727 21.1242C15.6942 21.2384 15.3964 21.3033 15.1074 21.3905C15.0669 21.4028 15.0111 21.4003 15.0362 21.4694C15.071 21.5672 15.0256 21.6239 14.9496 21.674C14.8524 21.7381 14.7488 21.7973 14.6654 21.877C14.5602 21.9781 14.4404 22.0069 14.3061 21.9987C14.1466 21.9896 14.0398 21.9083 14.0438 21.7496C14.0478 21.5622 13.9596 21.4924 13.8107 21.4209C13.5128 21.2779 13.3687 20.991 13.4262 20.6631C13.457 20.4847 13.5007 20.3006 13.5832 20.1428C13.7168 19.8864 13.8876 19.6497 14.0422 19.4048C14.06 19.3768 14.0786 19.3497 14.1102 19.3012C13.9944 19.3184 13.9038 19.3324 13.8131 19.3464C13.4489 19.4031 13.0838 19.4171 12.722 19.3308C12.2242 19.2124 11.915 18.8557 11.9125 18.3807C11.9117 18.2163 11.9352 18.0404 11.9951 17.8892C12.106 17.6089 12.2517 17.3418 12.3828 17.0697C12.3974 17.0401 12.4104 17.0097 12.4306 16.9662C12.3723 16.9695 12.3326 16.9711 12.293 16.9736C11.9797 16.9925 11.6665 17.0089 11.3548 16.9481C10.938 16.8667 10.6523 16.6275 10.5098 16.2191C10.4361 16.0078 10.4353 15.7917 10.4782 15.573C10.53 15.31 10.6377 15.0692 10.7615 14.8341C10.7842 14.7914 10.8036 14.747 10.832 14.6878C10.785 14.6878 10.7567 14.6895 10.7292 14.6878C10.5155 14.6739 10.2993 14.6714 10.0873 14.6418C9.8161 14.604 9.56275 14.5046 9.35634 14.3139C9.05685 14.0377 8.98562 13.681 9.02447 13.289C9.05119 13.0202 9.15479 12.7769 9.26164 12.5345C9.27378 12.5065 9.28268 12.4769 9.29887 12.4317C9.24788 12.4317 9.21388 12.4317 9.17989 12.4317C8.9233 12.426 8.67075 12.3931 8.4263 12.3093C7.92364 12.1358 7.64357 11.7693 7.61686 11.2416C7.60148 10.94 7.65167 10.6482 7.76661 10.3687C7.77875 10.34 7.78846 10.3104 7.80222 10.2718C7.7658 10.266 7.74152 10.2611 7.71642 10.2586C7.44769 10.2323 7.19191 10.1657 6.94827 10.0441C6.4626 9.80246 6.19711 9.36274 6.23191 8.81535C6.24405 8.62878 6.28695 8.44303 6.325 8.25892C6.35252 8.12824 6.3598 8.12906 6.23272 8.09536C5.92109 8.01235 5.62645 7.89235 5.36419 7.69838C5.15779 7.54633 5.01937 7.34908 4.98457 7.08771C4.96514 6.93895 4.94976 6.78936 4.94086 6.63977C4.93681 6.57566 4.91739 6.54032 4.86073 6.50991C4.35806 6.24115 4.12494 5.70363 4.26012 5.14309C4.34673 4.78474 4.52562 4.47817 4.75631 4.20037C5.22659 3.63407 5.7762 3.16312 6.4027 2.7834C6.95798 2.44725 7.5432 2.18752 8.18023 2.05766C8.54043 1.98451 8.89901 1.96972 9.25678 2.07986C9.53928 2.16698 9.69064 2.36177 9.74164 2.64615C9.75297 2.71108 9.77968 2.74888 9.83391 2.78258C10.169 2.99135 10.3058 3.36696 10.1884 3.74667C10.0427 4.21763 9.75297 4.58748 9.39762 4.91131C9.34501 4.95898 9.29402 5.0083 9.24221 5.05761C9.24626 5.06336 9.25112 5.06994 9.25516 5.07569C9.28026 5.06501 9.30535 5.05432 9.33044 5.04282C9.50447 4.96145 9.67364 4.86775 9.85334 4.802C10.046 4.73131 10.2459 4.66967 10.4475 4.63762C10.5988 4.61378 10.7623 4.622 10.9129 4.65323C11.3451 4.742 11.524 5.08638 11.3702 5.50637C11.2537 5.82691 11.0562 6.09156 10.806 6.31266C10.3252 6.7384 9.79992 7.10333 9.23331 7.40086C8.66589 7.69921 8.06691 7.91208 7.43878 8.0403C7.39508 8.04934 7.34165 8.07564 7.31899 8.1118C7.2 8.2992 7.11663 8.50138 7.07778 8.7233C7.0195 9.06028 7.09639 9.29699 7.5432 9.41616C7.58206 9.42685 7.62334 9.43342 7.66381 9.43342C7.86374 9.43342 8.06448 9.43507 8.26441 9.42685C8.3065 9.4252 8.35831 9.39397 8.38664 9.35945C8.97996 8.63618 9.65098 8.00167 10.4361 7.49866C10.87 7.22086 11.3249 6.98579 11.8276 6.86169C12.0129 6.81648 12.2007 6.79922 12.3885 6.84443C12.7074 6.92169 12.8904 7.21264 12.8102 7.53565C12.7795 7.65893 12.7236 7.78057 12.6589 7.88989C12.4541 8.2318 12.1554 8.48412 11.8421 8.71426C11.0505 9.29699 10.1901 9.75068 9.24869 10.0194C8.95405 10.1041 8.7776 10.2578 8.6578 10.5241C8.57038 10.7172 8.4781 10.9079 8.45625 11.1233C8.43763 11.3049 8.50401 11.4397 8.67075 11.5063C8.78974 11.5539 8.92249 11.5909 9.04876 11.5901C9.31506 11.5885 9.58218 11.5622 9.84767 11.5375C9.90271 11.5326 9.96423 11.4997 10.0047 11.4602C10.2597 11.2153 10.5066 10.9613 10.7615 10.7164C11.3921 10.1115 12.1003 9.62246 12.8984 9.27644C13.1097 9.18521 13.3388 9.12767 13.5654 9.08576C13.6868 9.06357 13.8293 9.08576 13.9475 9.12932C14.2122 9.22712 14.3287 9.50657 14.23 9.77451C14.0997 10.1255 13.8552 10.3885 13.5695 10.6129C12.6799 11.3131 11.698 11.8383 10.6272 12.1909C10.5754 12.2082 10.5203 12.2435 10.4887 12.2871C10.3479 12.481 10.2006 12.6734 10.084 12.8829C9.99499 13.0424 9.93105 13.2208 9.88653 13.3991C9.83553 13.6013 9.92619 13.7476 10.1245 13.8068C10.2394 13.8413 10.3673 13.8684 10.4831 13.8536C10.857 13.8068 11.2294 13.7402 11.6017 13.6777C11.6357 13.672 11.6705 13.6473 11.6972 13.6235C12.0623 13.3005 12.4209 12.9684 12.7924 12.6528C13.3323 12.1958 13.9102 11.7972 14.5724 11.5416C14.748 11.4734 14.9285 11.4126 15.1114 11.3706C15.3276 11.3213 15.5129 11.4019 15.6554 11.572C15.7995 11.7438 15.7736 11.9312 15.691 12.1202C15.6149 12.2928 15.5008 12.4358 15.3624 12.5616C15.0224 12.8682 14.6509 13.1303 14.2648 13.372C13.6569 13.7525 12.9972 14.0246 12.3456 14.3147C12.2841 14.3418 12.2226 14.3846 12.1797 14.4363C12.0121 14.6394 11.847 14.8457 11.6916 15.0585C11.5459 15.2582 11.4204 15.4711 11.3492 15.7111C11.2755 15.961 11.3621 16.1073 11.6171 16.1311C11.8033 16.1484 11.9992 16.1599 12.1805 16.1221C12.5892 16.0366 12.9923 15.9215 13.3963 15.8122C13.4602 15.795 13.5233 15.7547 13.5751 15.7111C14.2373 15.1456 14.8969 14.5761 15.6651 14.1577C15.9565 13.9991 16.243 13.829 16.562 13.7287C16.7028 13.6843 16.842 13.6818 16.9796 13.7377C17.2654 13.8544 17.3674 14.1388 17.2192 14.4109C17.1844 14.475 17.1407 14.535 17.097 14.5933C16.8615 14.9057 16.545 15.1218 16.2252 15.3314C15.7315 15.6552 15.2094 15.9248 14.6816 16.1854C14.4121 16.3185 14.1207 16.4171 13.9127 16.6571C13.8439 16.7369 13.7645 16.8075 13.6941 16.8848C13.4141 17.1922 13.1356 17.5045 12.9462 17.8793C12.8742 18.0223 12.8434 18.1892 12.8037 18.3478C12.7851 18.4234 12.8296 18.4809 12.9049 18.499C12.9778 18.5171 13.0522 18.5319 13.1275 18.5368C13.4294 18.5574 13.7225 18.4916 14.0163 18.4349C14.4704 18.3478 14.8913 18.1579 15.3154 17.9829C15.4093 17.9442 15.5065 17.9064 15.5882 17.8481C16.0536 17.5103 16.5069 17.1544 16.9796 16.8297C17.2913 16.616 17.6256 16.436 17.9582 16.2544C18.0788 16.1886 18.2189 16.15 18.3541 16.1262C18.5467 16.0917 18.7118 16.1623 18.8187 16.3349C18.9255 16.5067 18.9352 16.6875 18.8187 16.8585C18.7653 16.9374 18.6981 17.0114 18.6228 17.0689C17.9234 17.6105 17.1747 18.0716 16.3766 18.4481C16.3329 18.4686 16.2892 18.4957 16.2536 18.5286C15.9047 18.8491 15.5485 19.1615 15.2134 19.496C14.9892 19.7204 14.7917 19.9735 14.5894 20.2201C14.5157 20.3097 14.4599 20.4157 14.4056 20.5193C14.387 20.5538 14.3975 20.6039 14.3951 20.6466C14.4356 20.6343 14.4769 20.6236 14.5165 20.608C14.5343 20.6006 14.5465 20.5801 14.5618 20.5669C14.9293 20.2464 15.2936 19.9209 15.6667 19.6069C16.3062 19.0669 17.0169 18.6371 17.7502 18.245C18.0521 18.0831 18.3694 17.9492 18.6867 17.8185C18.8721 17.742 19.0728 17.7067 19.276 17.7231C19.6896 17.756 19.9001 18.1292 19.7034 18.4974C19.6257 18.6437 19.5253 18.7817 19.4144 18.9042V18.9026ZM8.73227 2.72176C8.68856 2.71847 8.64485 2.71026 8.60114 2.7119C8.27574 2.72669 7.96492 2.81381 7.66381 2.93135C6.94988 3.21162 6.33147 3.64558 5.7762 4.17406C5.46942 4.46584 5.23468 4.81104 5.08494 5.21213C5.0388 5.33624 5.02504 5.46445 5.0558 5.59431C5.06551 5.63541 5.08818 5.6765 5.11408 5.71102C5.14888 5.75787 5.1845 5.76773 5.21688 5.70116C5.50989 5.10035 5.93323 4.6031 6.4197 4.15763C7.08263 3.55188 7.82084 3.07189 8.66913 2.77601C8.6926 2.76779 8.71365 2.75464 8.73551 2.74395L8.73389 2.72094L8.73227 2.72176ZM8.85611 3.63407C8.30327 3.61435 6.28776 5.23268 6.15502 5.81787C6.78719 5.63705 7.39508 5.42336 7.94468 5.07816C8.42063 4.77899 8.84154 4.4042 9.22036 3.95133C9.01881 3.91352 8.85611 3.8601 8.8553 3.6349L8.85611 3.63407ZM10.4191 5.53842C9.5587 5.78335 8.89577 6.33814 8.27251 6.95538C9.08842 6.63895 9.84767 6.23458 10.4191 5.53842ZM6.05141 7.20853C6.26348 7.31127 6.49336 7.32688 6.72324 7.33182C6.75481 7.33182 6.79447 7.29812 6.81957 7.26935C7.05835 6.99237 7.29066 6.70881 7.53349 6.43512C7.663 6.28882 7.80951 6.15732 7.94873 6.01924C7.96897 5.99951 7.98758 5.97732 8.00701 5.95677C8.00296 5.95184 7.99892 5.94691 7.99487 5.94198C7.86779 6.00526 7.74152 6.07019 7.61362 6.13184M11.6025 7.87181C11.0966 8.08221 10.6361 8.36495 10.2475 8.76111C10.7316 8.51618 11.1849 8.22111 11.6025 7.87181ZM16.2374 19.9998C16.4349 19.9883 17.7008 19.2617 17.9704 18.9601C17.3657 19.2428 16.7983 19.5905 16.2374 19.9998Z" fill="#A50D12"/>
</svg>
