<svg xmlns="http://www.w3.org/2000/svg" width="22" height="22" viewBox="0 0 22 22" fill="none">
        <path d="M1.5 10.0655C1.5 8.8413 2.06058 7.68451 3.02142 6.92595L8.52142 2.58385C9.97466 1.43655 12.0253 1.43655 13.4786 2.58385L18.9786 6.92595C19.9394 7.68451 20.5 8.8413 20.5 10.0655V16.6271C20.5 18.8362 18.7091 20.6271 16.5 20.6271H15C14.4477 20.6271 14 20.1794 14 19.6271V16.6271C14 15.5225 13.1046 14.6271 12 14.6271H10C8.89543 14.6271 8 15.5225 8 16.6271V19.6271C8 20.1794 7.55228 20.6271 7 20.6271H5.5C3.29086 20.6271 1.5 18.8362 1.5 16.6271L1.5 10.0655Z" stroke="#A50D12" strokeWidth="1.5" />
    </svg>