<svg width="24" height="25" viewBox="0 0 24 25" fill="none" xmlns="http://www.w3.org/2000/svg">
<path d="M17.812 5.73H6.145C3.855 5.73 2 7.565 2 9.829V15.597C2 17.861 3.856 19.697 6.145 19.697H17.812C20.102 19.697 21.957 17.861 21.957 15.597V9.829C21.957 7.565 20.101 5.729 17.812 5.729V5.73ZM15.009 12.993L9.552 15.568C9.51872 15.584 9.48192 15.5914 9.44503 15.5894C9.40815 15.5873 9.37237 15.576 9.34103 15.5565C9.3097 15.5369 9.28382 15.5097 9.2658 15.4775C9.24779 15.4452 9.23822 15.4089 9.238 15.372V10.063C9.23867 10.0259 9.24872 9.98952 9.26722 9.95733C9.28573 9.92513 9.31208 9.89815 9.34382 9.87888C9.37556 9.85962 9.41167 9.8487 9.44877 9.84715C9.48587 9.84559 9.52276 9.85346 9.556 9.87L15.014 12.605C15.0504 12.6231 15.0809 12.6511 15.102 12.6858C15.1232 12.7205 15.1341 12.7605 15.1336 12.8011C15.1331 12.8417 15.1211 12.8813 15.0991 12.9155C15.077 12.9496 15.0458 12.9768 15.009 12.994V12.993Z" fill="white"/>
</svg>
